# xmcd
#
# Track frame offsets: 
#        150
#        29288
#        57272
#        87240
#        115553
#        144291
#        177270
#        211840
#        243098
#        276536
#
# Disc length: 4128 seconds
#
# Revision: 1
# Processed by: cddbd v1.5.2PL0 Copyright (c) Steve Scherf et al.
# Submitted via: ExactAudioCopy v0.99pb5
#
DISCID=82101e0a
DTITLE=Various Artist - Disco Giants 2 CD2
DYEAR=2007
DGENRE=Disco Funk
TTITLE0=Regina - Baby Love
TTITLE1=O'Jays - Put Our Hands Together
TTITLE2=Nuance feat. Vikki Love - Love Ride
TTITLE3=Haywoode - Getting Closer
TTITLE4=Peter Brown - They Only Come Out At Night
TTITLE5=Phyllis Nelson - I Like You (Shep Pettibone Remix)
TTITLE6=One Way - You Better Quit
TTITLE7=First Love - Don't Say Goodbye
TTITLE8=Divine Sounds - What People Do For Money
TTITLE9=Jesse Johnson - She (I Can't Resist)
EXTD=
EXTT0=
EXTT1=
EXTT2=
EXTT3=
EXTT4=
EXTT5=
EXTT6=
EXTT7=
EXTT8=
EXTT9=
PLAYORDER=
